<svg width="20" height="18" viewBox="0 0 20 18" fill="none" xmlns="http://www.w3.org/2000/svg">
<g id="Group">
<g id="briefcase">
<path id="Shape" fill-rule="evenodd" clip-rule="evenodd" d="M17.5 18H2.5C1.11929 18 0 16.8487 0 15.4286V6C0 4.57984 1.11929 3.42857 2.5 3.42857H5.75C5.85409 3.42726 5.94127 3.34711 5.95417 3.24086L6.07417 2.25257C6.23052 0.965665 7.29411 -6.62888e-05 8.555 3.41274e-09H11.445C12.7049 0.00122977 13.7671 0.966637 13.9233 2.25257L14.0433 3.24086C14.0564 3.34807 14.145 3.42854 14.25 3.42857H17.5C18.8807 3.42857 20 4.57984 20 6V15.4286C20 16.8487 18.8807 18 17.5 18ZM8.555 1.71429C8.13449 1.71398 7.77964 2.03596 7.7275 2.46514L7.64 3.18857C7.63285 3.24941 7.65137 3.31049 7.69087 3.35636C7.73038 3.40224 7.78709 3.42852 7.84667 3.42857H12.1533C12.2129 3.42852 12.2696 3.40224 12.3091 3.35636C12.3486 3.31049 12.3672 3.24941 12.36 3.18857L12.2725 2.46514C12.2204 2.03596 11.8655 1.71398 11.445 1.71429H8.555ZM4.375 8.14286C4.375 7.78782 4.65482 7.5 5 7.5H15C15.3452 7.5 15.625 7.78782 15.625 8.14286V8.57143C15.625 8.92647 15.3452 9.21429 15 9.21429H5C4.65482 9.21429 4.375 8.92647 4.375 8.57143V8.14286ZM5 12.2143C4.65482 12.2143 4.375 12.5021 4.375 12.8571V13.2857C4.375 13.6408 4.65482 13.9286 5 13.9286H15C15.3452 13.9286 15.625 13.6408 15.625 13.2857V12.8571C15.625 12.5021 15.3452 12.2143 15 12.2143H5Z" fill="black"/>
</g>
</g>
</svg>
